<svg xmlns="http://www.w3.org/2000/svg" viewBox="0 0 800 400" width="800" height="400">
  <defs>
    <linearGradient id="ocean" x1="0%" y1="0%" x2="100%" y2="100%">
      <stop offset="0%" style="stop-color:#e0f7ff;stop-opacity:1" />
      <stop offset="100%" style="stop-color:#b3e5fc;stop-opacity:1" />
    </linearGradient>
  </defs>
  <rect width="100%" height="100%" fill="url(#ocean)" />
  <!-- Simple world outline -->
  <path d="M400 200c0-110.46-89.54-200-200-200S0 89.54 0 200s89.54 200 200 200 200-89.54 200-200z" fill="none" stroke="#ffffff" stroke-width="2" opacity="0.3"/>
  <!-- Tariff zones as color-coded dots -->
  <circle cx="200" cy="150" r="4" fill="#42a5f5" opacity="0.8"/>
  <circle cx="300" cy="180" r="4" fill="#1e88e5" opacity="0.8"/>
  <circle cx="450" cy="160" r="4" fill="#1565c0" opacity="0.8"/>
  <circle cx="550" cy="200" r="4" fill="#0d47a1" opacity="0.8"/>
  <circle cx="350" cy="220" r="4" fill="#42a5f5" opacity="0.8"/>
  <circle cx="500" cy="240" r="4" fill="#1e88e5" opacity="0.8"/>
  <circle cx="250" cy="250" r="4" fill="#1565c0" opacity="0.8"/>
  <circle cx="600" cy="180" r="4" fill="#0d47a1" opacity="0.8"/>
  <!-- Pins for emphasis -->
  <g transform="translate(150,120)">
    <circle cx="0" cy="0" r="2" fill="#ffffff"/>
    <path d="M0,-8 L-2,-2 L2,-2 Z" fill="#42a5f5"/>
  </g>
  <g transform="translate(650,160)">
    <circle cx="0" cy="0" r="2" fill="#ffffff"/>
    <path d="M0,-8 L-2,-2 L2,-2 Z" fill="#1e88e5"/>
  </g>
</svg>